# xmcd
#
# Track frame offsets:
#	150
#	25360
#	43647
#	72212
#	87975
#	105770
#	136657
#	154287
#	183345
#	199580
#	227355
#	253335
#	280150
#	306232
#	318837
#
# Disc length: 4566 seconds
#
# Revision: 1
# Processed by: cddbd v1.5.1PL0 Copyright (c) Steve Scherf et al.
# Submitted via: CDex 1.50Beta5
#
DISCID=c111d40f
DTITLE=オリジナル・ラヴ - オリジナル・ラヴ・アーリー・コンプリート Disc 2
DYEAR=2003
DGENRE=Rock
TTITLE0=BODY FRESHER(Pre-debut CD version)
TTITLE1=I WANT YOU(Rare-Intro Version)
TTITLE2=Let’s Go!(Cosmo-Phase Mix)
TTITLE3=BLUE TALK(Pre-debut CD version)
TTITLE4=夜をぶっとばせ(Brand new mix)
TTITLE5=It’s a Wonderful World(TAKAO TAJIMA Remix)
TTITLE6=ヴィーナス(ピアノ弾き語りヴァージョン)
TTITLE7=サンシャイン・ロマンス(New Version)
TTITLE8=JUMPIN’ JACK JIVE(フィーチャリング吾妻光良)
TTITLE9=スキャンダル(Brand New Heavies Remix)
TTITLE10=DEEP FRENCH KISS(New Recording)
TTITLE11=ミリオン・シークレッツ・オブ・ジャズ(U・F・O リミックス)
TTITLE12=Rover(TAKAO TAJIMA Remix),The
TTITLE13=月の裏で会いましょう(ピアノ弾き語りヴァージョン)
TTITLE14=Winter’s Tale〜冬物語〜
EXTD=
EXTT0=
EXTT1=
EXTT2=
EXTT3=
EXTT4=
EXTT5=
EXTT6=
EXTT7=
EXTT8=
EXTT9=
EXTT10=
EXTT11=
EXTT12=
EXTT13=
EXTT14=
PLAYORDER=
